<?xml version="1.0" standalone="no"?>
<!DOCTYPE svg PUBLIC "-//W3C//DTD SVG 20010904//EN"
 "http://www.w3.org/TR/2001/REC-SVG-20010904/DTD/svg10.dtd">
<svg version="1.0" xmlns="http://www.w3.org/2000/svg"
 width="128.000000pt" height="128.000000pt" viewBox="0 0 128.000000 128.000000"
 preserveAspectRatio="xMidYMid meet">

<g transform="translate(0.000000,128.000000) scale(0.100000,-0.100000)"
fill="#000" stroke="none">
<path d="M542 783 c-61 -72 -82 -104 -82 -126 0 -25 8 -19 86 70 48 54 88 99
89 101 3 4 255 -285 255 -292 0 -3 -97 -6 -215 -6 l-215 0 0 -51 0 -51 26 31
26 31 123 0 123 0 66 -74 c36 -40 66 -76 66 -80 0 -3 -97 -6 -215 -6 -209 0
-215 -1 -215 -20 0 -20 5 -20 252 -18 179 2 252 6 255 15 2 6 -28 46 -66 90
-39 43 -71 81 -71 85 0 4 30 8 67 10 39 2 68 8 70 15 5 13 -313 373 -330 373
-7 0 -49 -44 -95 -97z"/>
</g>
</svg>
